<svg width="600" height="450" viewBox="0 0 800 600" fill="none" xmlns="http://www.w3.org/2000/svg" data-reactroot="">
<path d="M169.739 401.361H142.727V562.128H169.739V401.361Z" fill="#E6E7E8" stroke="#221b38" stroke-width="1"></path>
<path d="M635.092 401.361H608.08V562.128H635.092V401.361Z" fill="#E6E7E8" stroke="#221b38" stroke-width="1"></path>
<path fill-rule="evenodd" clip-rule="evenodd" d="M119.588 427H152.162V590H119.588V427ZM121.821 429.233V587.767H149.929V429.233H121.821Z" fill="#346dea" stroke="#221b38" stroke-width="1"></path>
<path fill-rule="evenodd" clip-rule="evenodd" d="M642.295 427H674.869V590H642.295V427ZM644.528 429.233V587.767H672.636V429.233H644.528Z" fill="#346dea" stroke="#221b38" stroke-width="1"></path>
<path d="M245.795 120.269L280.422 341.465L309.949 341.036C309.949 341.036 270.079 124.564 245.795 120.269Z" fill="#d8e1f0" stroke="#221b38" stroke-width="1"></path>
<path d="M280.422 341.465C280.422 341.465 268.28 134.458 245.795 120.269C245.795 120.269 323.903 114.052 335.701 120.57C347.499 127.088 377.78 341.164 377.78 341.164C377.78 341.164 303.245 348.96 280.422 341.465Z" fill="#346dea" stroke="#221b38" stroke-width="1"></path>
<path d="M381.839 411.62H357.998V548.032H381.839V411.62Z" fill="#346dea" stroke="#221b38" stroke-width="1"></path>
<path fill-rule="evenodd" clip-rule="evenodd" d="M381.839 411.62H357.998V470.543H381.839V411.62Z" fill="black" fill-opacity="0.29" stroke="#221b38" stroke-width="1"></path>
<path d="M308.662 564.823C308.662 543.098 336.087 525.486 369.917 525.486C403.747 525.486 431.172 543.098 431.172 564.823" fill="#346dea" stroke="#221b38" stroke-width="1"></path>
<path d="M579.571 546.965H540.305L497.735 387.769C497.735 387.769 389.437 393.988 376.289 389.567C363.141 385.147 386.71 369.945 386.71 369.945L487.479 334.178C498.346 330.508 513.65 330.974 524.007 335.902L525.352 337.326C529.078 341.271 531.282 346.411 531.572 351.83L579.571 546.965Z" fill="#346dea" stroke="#221b38" stroke-width="1"></path>
<path d="M551.112 569.52L568.67 569.388L563.817 539.236L545.094 544.813L551.112 569.52Z" fill="#77562F" stroke="#221b38" stroke-width="1"></path>
<path d="M567.022 558.273C567.022 558.273 600.402 570.826 620.491 574.578C625.907 575.59 624.446 586.609 624.446 586.609L548.651 586.002C547.414 586.003 546.367 585.099 546.197 583.874C545.591 579.498 544.544 567.625 547.844 563.454C548.507 562.615 550.134 563.307 551.64 563.782C553.311 564.31 556.301 572.593 566.234 564.074C567.165 563.276 565.942 559.382 567.022 558.273Z" fill="#d8e1f0" stroke="#221b38" stroke-width="1"></path>
<path d="M535.94 559.684L586.309 552.063L582.115 530.625L533.703 544.901L535.94 559.684Z" fill="#346dea" stroke="#221b38" stroke-width="1"></path>
<path d="M516.226 549.842H476.96L434.391 390.646L462.007 340.204C465.733 344.149 467.938 349.289 468.227 354.708L516.226 549.842Z" fill="#346dea" stroke="#221b38" stroke-width="1"></path>
<path d="M487.768 572.397L505.326 572.266L500.473 542.114L481.75 547.691L487.768 572.397Z" fill="#77562F" stroke="#221b38" stroke-width="1"></path>
<path d="M503.678 561.151C503.678 561.151 537.058 573.703 557.148 577.456C562.563 578.467 561.102 589.486 561.102 589.486L485.308 588.88C484.07 588.881 483.023 587.977 482.853 586.751C482.247 582.375 481.201 570.503 484.5 566.331C485.163 565.492 486.791 566.184 488.297 566.66C489.967 567.188 492.957 575.47 502.891 566.952C503.821 566.153 502.598 562.26 503.678 561.151Z" fill="#d8e1f0" stroke="#221b38" stroke-width="1"></path>
<path d="M472.594 562.561L522.964 554.94L518.77 533.503L470.357 547.779L472.594 562.561Z" fill="#346dea" stroke="#221b38" stroke-width="1"></path>
<path d="M425.83 152.063C420.675 148.108 390.033 133.486 367.466 135.209C347.346 136.745 322.465 147.569 308.461 165.282C298.495 177.888 310.496 175.385 312.998 191.772L321.716 298.679L435.451 301.187L440.581 204.953C436.668 180.672 442.933 165.184 425.83 152.063Z" fill="#d8e1f0" stroke="#221b38" stroke-width="1"></path>
<path d="M636.91 292.249L686.507 335.081H107.945L157.543 292.249H636.91Z" fill="#F4F1EC" stroke="#221b38" stroke-width="1"></path>
<path d="M686.507 335.081H107.945V460.625H686.507V335.081Z" fill="#D9D7D4" stroke="#221b38" stroke-width="1"></path>
<path d="M519.918 304.454C519.32 304.454 518.718 304.423 518.109 304.36C517.609 304.308 505.699 303.065 493.411 301.251C472.187 298.116 453.358 290.509 446.993 283.348L418.773 198.475C414.574 189.89 434.035 161.059 434.035 161.059C434.035 161.059 445.037 179.643 449.237 188.229L483.723 264.451C491.753 266.228 508.147 268.528 521.686 269.936C531.191 270.925 528.671 304.454 519.918 304.454Z" fill="#d8e1f0" stroke="#221b38" stroke-width="1"></path>
<path d="M527.499 280.139C527.499 280.139 528.423 296.443 523.934 300.932C523.934 300.932 528.266 303.05 533.15 304.498C538.034 305.945 577.029 309.453 577.029 309.453C577.029 309.453 578.526 295.348 565.485 292.569C552.444 289.789 537.969 278.868 527.499 280.139Z" fill="#77562F" stroke="#221b38" stroke-width="1"></path>
<path d="M183.668 267.076C177.412 259.417 168.254 259.061 164.892 262.629C161.7 266.015 164.471 273.751 165.386 276.217C169.044 286.078 177.219 291.443 181.445 293.758" fill="#346dea" stroke="#221b38" stroke-width="1"></path>
<path d="M197.192 315.88C218.478 315.88 235.733 313.003 235.733 309.453C235.733 305.904 218.478 303.026 197.192 303.026C175.906 303.026 158.65 305.904 158.65 309.453C158.65 313.003 175.906 315.88 197.192 315.88Z" fill="#161F40" stroke="#221b38" stroke-width="1"></path>
<path d="M197.192 313.665C218.478 313.665 235.733 310.788 235.733 307.238C235.733 303.689 218.478 300.811 197.192 300.811C175.906 300.811 158.65 303.689 158.65 307.238C158.65 310.788 175.906 313.665 197.192 313.665Z" fill="#d8e1f0" stroke="#221b38" stroke-width="1"></path>
<path d="M177.675 305.045C177.771 305.219 177.965 305.353 177.984 305.548C178.468 310.459 215.115 309.825 216.245 305.529C220.869 287.954 218.005 252.199 214.92 251.224C210.42 252.066 203.221 252.608 195.112 252.608C189.016 252.608 183.432 252.298 179.126 251.785L177.869 256.949C174.838 273.425 174.598 289.483 177.675 305.045Z" fill="#346dea" stroke="#221b38" stroke-width="1"></path>
<path d="M618.483 323.54H528.129L527.744 314.301H604.387L618.483 323.54Z" fill="#346dea" stroke="#221b38" stroke-width="1"></path>
<path d="M325.727 52.8411C325.727 52.8411 337.226 71.2361 336.394 80.0665C335.562 88.8968 343.988 84.8412 343.988 84.8412C343.7 81.4471 347.126 76.2851 349.854 76.8543C351.893 77.2793 358.813 53.8422 349.137 52.0402C339.462 50.238 325.727 52.8411 325.727 52.8411Z" fill="#231F20" stroke="#221b38" stroke-width="1"></path>
<path d="M379.505 156.624H375.232C369.828 156.624 365.447 152.243 365.447 146.839V123.377C365.447 120.905 367.451 118.902 369.922 118.902H384.813C387.285 118.902 389.289 120.905 389.289 123.377V146.84C389.289 152.243 384.908 156.624 379.505 156.624Z" fill="#77562F" stroke="#221b38" stroke-width="1"></path>
<path d="M365.447 124.27L387.197 124.493C387.197 124.493 368.861 138.904 365.447 136.568V124.27Z" fill="#231F20" stroke="#221b38" stroke-width="1"></path>
<path d="M375.745 126.76H363.141C348.685 126.76 340.57 115.04 340.57 100.584V66.9359C340.57 52.4794 348.685 40.7601 363.141 40.7601H380.206C394.663 40.7601 406.382 52.4794 406.382 66.9359V96.1222C406.382 113.043 392.666 126.76 375.745 126.76Z" fill="#77562F" stroke="#221b38" stroke-width="1"></path>
<path d="M411.729 96.8729C416.628 96.8729 420.6 92.3837 420.6 86.8461C420.6 81.3084 416.628 76.8192 411.729 76.8192C406.831 76.8192 402.859 81.3084 402.859 86.8461C402.859 92.3837 406.831 96.8729 411.729 96.8729Z" fill="#77562F" stroke="#221b38" stroke-width="1"></path>
<path d="M340.427 92.4243C345.325 92.4243 349.296 87.9351 349.296 82.3975C349.296 76.8598 345.325 72.3706 340.427 72.3706C335.528 72.3706 331.557 76.8598 331.557 82.3975C331.557 87.9351 335.528 92.4243 340.427 92.4243Z" fill="#77562F" stroke="#221b38" stroke-width="1"></path>
<path d="M319.678 37.7079C319.102 32.379 318.182 24.1256 323.727 20.3538C328.974 16.7849 337.177 18.6714 340.503 22.9569C343.469 26.7802 342.26 32.1345 343.106 32.2124C344.425 32.3339 343.633 18.9753 351.204 13.4122C355.947 9.92755 363.835 9.60082 367.112 13.1229C372.565 18.9827 368.032 25.0803 369.265 25.5703C370.645 26.1189 372.103 14.0223 385.045 10.5198C393.207 8.31081 403.643 13.5462 404.134 18.6184C404.87 26.2049 383.526 35.1702 383.309 34.8155C383.119 34.5041 396.357 22.3298 407.894 25.2708C412.671 26.4883 417.026 30.2632 418.596 35.1048C421.106 42.8458 416.456 51.6802 410.498 54.1943C406.964 55.6851 405.68 53.8128 396.977 53.374C389.624 53.0031 384.01 54.0107 377.888 55.1094C368.775 56.7449 367.989 58.0646 361.327 59.4005C353.498 60.9708 337.042 64.2711 327.176 55.1094C320.932 49.3115 320.038 41.0397 319.678 37.7079Z" fill="#231F20" stroke="#221b38" stroke-width="1"></path>
<path d="M388.32 52.8411C388.32 52.8411 399.82 71.2361 398.988 80.0665C398.155 88.8968 406.581 84.8412 406.581 84.8412C406.293 81.4471 409.719 76.2851 412.448 76.8543C414.486 77.2793 421.406 53.8422 411.731 52.0402C402.055 50.238 388.32 52.8411 388.32 52.8411Z" fill="#231F20" stroke="#221b38" stroke-width="1"></path>
<path fill-rule="evenodd" clip-rule="evenodd" d="M355.714 76.7901C354.478 76.5343 352.386 76.2884 349.202 76.4633H349.202C346.869 76.5915 345.343 77.1837 344.45 77.6738C343.998 77.9215 343.696 78.15 343.525 78.2947C343.439 78.3671 343.386 78.4188 343.364 78.4414C343.36 78.4449 343.358 78.4477 343.356 78.4498C342.544 79.3736 341.138 79.4821 340.194 78.6857C339.237 77.8791 339.116 76.4497 339.922 75.4931L341.636 76.9382C339.922 75.4931 339.923 75.492 339.924 75.491L339.926 75.4889L339.93 75.4844L339.938 75.4748L339.957 75.453C339.971 75.4373 339.987 75.4193 340.005 75.3991C340.042 75.3587 340.088 75.3097 340.144 75.2532C340.256 75.1403 340.406 74.9975 340.599 74.8349C340.984 74.5094 341.534 74.1049 342.27 73.7012C343.751 72.8886 345.936 72.1046 348.954 71.9388C352.478 71.7452 354.966 72.0079 356.632 72.3527C357.465 72.5252 358.092 72.7178 358.537 72.8832C358.76 72.9658 358.937 73.0415 359.072 73.104C359.14 73.1353 359.196 73.1632 359.243 73.1871C359.266 73.1991 359.287 73.21 359.305 73.2198L359.33 73.2337L359.342 73.2399L359.347 73.2429L359.35 73.2444C359.351 73.2451 359.352 73.2458 358.237 75.2181L359.352 73.2458C360.441 73.8615 360.825 75.2437 360.21 76.3331C359.603 77.4063 358.252 77.7948 357.171 77.2172C357.169 77.2164 357.167 77.2156 357.165 77.2146C357.14 77.2029 357.073 77.1731 356.961 77.1316C356.738 77.0487 356.332 76.918 355.714 76.7901ZM357.125 77.192C357.125 77.192 357.125 77.1919 357.125 77.1919C357.125 77.1919 357.125 77.1919 357.125 77.1919L357.125 77.192Z" fill="#231F20" stroke="#221b38" stroke-width="1"></path>
<path fill-rule="evenodd" clip-rule="evenodd" d="M376.637 72.3527C378.303 72.0079 380.791 71.7452 384.315 71.9388C387.333 72.1046 389.518 72.8886 390.999 73.7013C391.735 74.105 392.285 74.5095 392.67 74.8351C392.862 74.9977 393.013 75.1405 393.125 75.2534C393.181 75.3099 393.227 75.359 393.264 75.3994C393.282 75.4196 393.298 75.4376 393.312 75.4533L393.331 75.4751L393.339 75.4847L393.343 75.4892L393.345 75.4913C393.345 75.4924 393.346 75.4934 391.614 76.9535L393.346 75.4934C394.153 76.4502 394.031 77.8795 393.074 78.686C392.129 79.4822 390.724 79.3734 389.912 78.4495C389.91 78.4475 389.908 78.4447 389.904 78.4412C389.882 78.4185 389.829 78.3669 389.743 78.2945C389.572 78.1499 389.27 77.9214 388.819 77.6738C387.926 77.1837 386.4 76.5915 384.066 76.4633L384.066 76.4633C380.883 76.2884 378.791 76.5343 377.555 76.7901C376.937 76.918 376.531 77.0487 376.308 77.1316C376.196 77.1731 376.129 77.2029 376.104 77.2146C376.101 77.2156 376.1 77.2164 376.098 77.2172C375.017 77.7948 373.666 77.4063 373.059 76.3331C372.444 75.2438 372.827 73.8615 373.917 73.2458L375.032 75.2181C373.917 73.2458 373.918 73.2451 373.919 73.2444L373.922 73.2429L373.927 73.2399L373.938 73.2337L373.964 73.2198C373.982 73.21 374.003 73.1991 374.026 73.1871C374.073 73.1632 374.129 73.1353 374.197 73.104C374.332 73.0415 374.509 72.9658 374.731 72.8832C375.177 72.7178 375.803 72.5252 376.637 72.3527ZM389.885 78.4179C389.885 78.4175 389.884 78.4171 389.884 78.4167C389.884 78.4164 389.883 78.416 389.883 78.4157C389.883 78.4157 389.883 78.4157 389.883 78.4157L389.884 78.4167L389.885 78.4177L389.885 78.4179Z" fill="#231F20" stroke="#221b38" stroke-width="1"></path>
<path fill-rule="evenodd" clip-rule="evenodd" d="M364.821 75.9787C365.208 76.1327 365.398 76.5718 365.244 76.9594C362.097 84.8772 361.058 90.5287 360.664 93.8346L360.664 93.8346C360.573 94.6003 360.498 95.4079 360.576 96.1432C360.655 96.8763 360.875 97.4392 361.288 97.8131L360.782 98.3731L361.288 97.8131C361.646 98.1366 362.14 98.3128 362.759 98.3569C363.38 98.4013 364.075 98.3079 364.76 98.1422C366.13 97.8106 367.32 97.2252 367.528 97.1203C367.9 96.9324 368.354 97.0819 368.542 97.4543C368.73 97.8266 368.581 98.2808 368.208 98.4688C367.966 98.5911 366.655 99.2379 365.115 99.6103C364.346 99.7965 363.484 99.923 362.651 99.8636C361.816 99.8039 360.96 99.5525 360.275 98.9331C359.478 98.2116 359.173 97.2272 359.074 96.3035C358.976 95.382 359.073 94.4235 359.164 93.6561C359.572 90.2281 360.642 84.4484 363.84 76.4015C363.994 76.0139 364.433 75.8246 364.821 75.9787Z" fill="#231F20" stroke="#221b38" stroke-width="1"></path>
<path d="M365.439 108.842C365.657 109.077 367.137 114.25 372.545 113.675C375.232 113.389 377.377 111.028 376.643 106.656L365.439 108.842Z" fill="white" stroke="#221b38" stroke-width="1"></path>
<path d="M349.944 85.358C351.116 85.358 352.065 84.4081 352.065 83.2364C352.065 82.0647 351.116 81.1149 349.944 81.1149C348.772 81.1149 347.822 82.0647 347.822 83.2364C347.822 84.4081 348.772 85.358 349.944 85.358Z" fill="#231F20" stroke="#221b38" stroke-width="1"></path>
<path d="M381.51 85.358C382.682 85.358 383.632 84.4081 383.632 83.2364C383.632 82.0647 382.682 81.1149 381.51 81.1149C380.339 81.1149 379.389 82.0647 379.389 83.2364C379.389 84.4081 380.339 85.358 381.51 85.358Z" fill="#231F20" stroke="#221b38" stroke-width="1"></path>
<path fill-rule="evenodd" clip-rule="evenodd" d="M397.106 145.988C398.263 146.4 398.866 147.671 398.454 148.828L396.36 148.082C398.454 148.828 398.453 148.829 398.453 148.831L398.452 148.834L398.449 148.842L398.442 148.861C398.437 148.875 398.43 148.893 398.422 148.913C398.407 148.954 398.386 149.007 398.359 149.071C398.307 149.199 398.232 149.372 398.132 149.582C397.932 150.003 397.63 150.576 397.204 151.24C396.351 152.568 394.992 154.276 392.938 155.859C388.763 159.078 382.002 161.571 371.508 159.825C364.655 158.684 360.055 156.597 356.991 154.152C356.031 153.387 355.874 151.988 356.64 151.029C357.405 150.069 358.804 149.912 359.763 150.678C362.085 152.53 365.916 154.388 372.237 155.44C381.648 157.006 387.13 154.724 390.224 152.339C391.803 151.121 392.833 149.82 393.463 148.839C393.777 148.35 393.989 147.943 394.117 147.673C394.181 147.538 394.224 147.438 394.248 147.38C394.261 147.35 394.268 147.331 394.271 147.324L394.27 147.326L394.269 147.33M397.106 145.988C395.955 145.578 394.689 146.174 394.272 147.322ZM394.272 147.322C394.271 147.322 394.271 147.323 394.271 147.324L394.272 147.321C394.273 147.319 394.272 147.32 394.272 147.322Z" fill="#346dea" stroke="#221b38" stroke-width="1"></path>
<path d="M654.96 276.972H429.512L461.526 132.935H686.974L654.96 276.972Z" fill="#B5CDFB" stroke="#221b38" stroke-width="1"></path>
<path d="M583.447 314.484H556.704L546.277 231.801H573.02L583.447 314.484Z" fill="#346dea" stroke="#221b38" stroke-width="1"></path>
<path d="M546.278 231.801L537.857 276.972L551.959 276.851L546.278 231.801Z" fill="#161F40" stroke="#221b38" stroke-width="1"></path>
<path d="M511.272 309.786H337.805V313.604H511.272V309.786Z" fill="#161F40" stroke="#221b38" stroke-width="1"></path>
<path d="M496.401 296.943L511.272 309.785H337.805L352.675 296.943H496.401Z" fill="#346dea" stroke="#221b38" stroke-width="1"></path>
<path d="M326.221 290.006L344.652 292.461L369.236 285.612L381.761 288.769C381.761 288.769 384.89 295.502 382.866 298.513L380.958 298.442C380.958 298.442 382.793 304.391 380.411 305.184C378.029 305.977 378.542 307.589 378.542 307.589C378.542 307.589 379.743 310.868 373.483 313.133C373.483 313.133 374.807 319.466 371.007 318.882C367.206 318.299 349.398 318.807 341.32 314.682L325.373 312.614C325.373 312.614 325.582 295.274 326.221 290.006Z" fill="#77562F" stroke="#221b38" stroke-width="1"></path>
<path d="M339.888 317.554C337.117 317.554 253.406 309.978 255.87 299.453C262.66 270.448 305.301 170.167 305.301 170.167C309.757 161.714 317.893 163.956 326.35 168.417C334.804 172.876 338.042 183.342 333.584 191.796L299.135 281.093L342.453 291.472C342.453 291.472 340.758 309.239 339.888 317.554Z" fill="#d8e1f0" stroke="#221b38" stroke-width="1"></path>
<path fill-rule="evenodd" clip-rule="evenodd" d="M192.328 395.4C192.328 394.784 192.828 394.284 193.445 394.284H711.845C712.461 394.284 712.961 394.784 712.961 395.4C712.961 396.017 712.461 396.517 711.845 396.517H193.445C192.828 396.517 192.328 396.017 192.328 395.4Z" fill="#346dea" stroke="#221b38" stroke-width="1"></path>
<path fill-rule="evenodd" clip-rule="evenodd" d="M88 335.081C88 334.465 88.4998 333.965 89.1164 333.965H643.409C644.026 333.965 644.526 334.465 644.526 335.081C644.526 335.698 644.026 336.198 643.409 336.198H89.1164C88.4998 336.198 88 335.698 88 335.081Z" fill="#346dea" stroke="#221b38" stroke-width="1"></path>
<path fill-rule="evenodd" clip-rule="evenodd" d="M106.828 460.625C106.828 460.008 107.328 459.508 107.945 459.508H686.507C687.123 459.508 687.623 460.008 687.623 460.625C687.623 461.241 687.123 461.741 686.507 461.741H107.945C107.328 461.741 106.828 461.241 106.828 460.625Z" fill="#346dea" stroke="#221b38" stroke-width="1"></path>
</svg>
