<svg width="600" height="450" viewBox="0 0 800 600" fill="none" xmlns="http://www.w3.org/2000/svg" data-reactroot="">
<path opacity="0.8" d="M687.81 41.3237H673.929C672.861 41.3237 671.9 40.4694 671.9 39.2948V12.5992C671.9 11.5313 672.754 10.5703 673.929 10.5703H687.81C688.878 10.5703 689.839 11.4246 689.839 12.5992V39.2948C689.839 40.4694 688.985 41.3237 687.81 41.3237Z" fill="none" stroke="#221b38" stroke-width="1"></path>
<path opacity="0.2" d="M73.809 398.389C166.072 286.931 -2.82409 82.0286 133.415 33.3014C221.301 1.86827 388.989 149.732 479.173 173.791C602.922 206.804 752.59 144.093 783.123 228.512C805.661 290.827 763.751 389.448 654.969 371.566C570.756 357.723 502.625 649.979 415.054 539.954C356.938 466.936 182.156 592.438 91.3209 579.885C8.22067 568.4 -32.2704 526.539 73.809 398.389Z" fill="none" stroke="#221b38" stroke-width="1"></path>
<path d="M161.593 562.23L126.141 541.834C123.044 540.019 117.918 540.019 114.822 541.834L81.5056 561.162C78.4089 562.977 78.4089 565.86 81.5056 567.676L116.957 588.071C120.054 589.886 125.18 589.886 128.276 588.071L161.699 568.637C164.689 566.928 164.689 564.045 161.593 562.23Z" fill="#2563eb" stroke="#221b38" stroke-width="1"></path>
<path d="M106.85 530.14L71.3985 509.744C68.3018 507.929 63.1763 507.929 60.0796 509.744L26.7634 529.072C23.6667 530.887 23.6667 533.77 26.7634 535.586L62.2152 555.981C65.3119 557.796 70.4375 557.796 73.5342 555.981L106.957 536.547C109.947 534.838 109.947 531.955 106.85 530.14Z" fill="#2563eb" stroke="#221b38" stroke-width="1"></path>
<path opacity="0.9" d="M363.521 146.846H349.64C348.572 146.846 347.611 145.991 347.611 144.817V130.935C347.611 129.867 348.465 128.906 349.64 128.906H363.521C364.589 128.906 365.55 129.761 365.55 130.935V144.817C365.55 145.885 364.589 146.846 363.521 146.846Z" fill="#2563eb" stroke="#221b38" stroke-width="1"></path>
<path opacity="0.9" d="M648.42 170.229H634.538C633.47 170.229 632.509 169.375 632.509 168.2V159.658C632.509 158.59 633.363 157.629 634.538 157.629H648.42C649.488 157.629 650.449 158.483 650.449 159.658V168.2C650.449 169.375 649.594 170.229 648.42 170.229Z" fill="#2563eb" stroke="#221b38" stroke-width="1"></path>
<path opacity="0.8" d="M610.289 41.3237H596.407C595.339 41.3237 594.378 40.4694 594.378 39.2948V12.5992C594.378 11.5313 595.233 10.5703 596.407 10.5703H610.289C611.357 10.5703 612.318 11.4246 612.318 12.5992V39.2948C612.318 40.4694 611.464 41.3237 610.289 41.3237Z" fill="none" stroke="#221b38" stroke-width="1"></path>
<path opacity="0.9" d="M558.605 23.1707H544.724C543.656 23.1707 542.695 22.3164 542.695 21.1418V12.5992C542.695 11.5313 543.549 10.5703 544.724 10.5703H558.605C559.673 10.5703 560.634 11.4246 560.634 12.5992V21.1418C560.634 22.3164 559.78 23.1707 558.605 23.1707Z" fill="#2563eb" stroke="#221b38" stroke-width="1"></path>
<path opacity="0.9" d="M636.129 41.5378H622.247C621.179 41.5378 620.218 40.6836 620.218 39.509V30.9664C620.218 29.8985 621.072 28.9375 622.247 28.9375H636.129C637.197 28.9375 638.158 29.7918 638.158 30.9664V39.509C638.158 40.6836 637.303 41.5378 636.129 41.5378Z" fill="#2563eb" stroke="#221b38" stroke-width="1"></path>
<path opacity="0.8" d="M584.447 23.1707H570.565C569.498 23.1707 568.537 22.3164 568.537 21.1418V12.5992C568.537 11.5313 569.391 10.5703 570.565 10.5703H584.447C585.515 10.5703 586.476 11.4246 586.476 12.5992V21.1418C586.476 22.3164 585.622 23.1707 584.447 23.1707Z" fill="none" stroke="#221b38" stroke-width="1"></path>
<path opacity="0.8" d="M661.969 41.5378H648.087C647.019 41.5378 646.058 40.6836 646.058 39.509V30.9664C646.058 29.8985 646.912 28.9375 648.087 28.9375H661.969C663.036 28.9375 663.998 29.7918 663.998 30.9664V39.509C663.998 40.6836 663.143 41.5378 661.969 41.5378Z" fill="none" stroke="#221b38" stroke-width="1"></path>
<path opacity="0.9" d="M687.81 41.5378H673.929C672.861 41.5378 671.9 40.6836 671.9 39.509V30.9664C671.9 29.8985 672.754 28.9375 673.929 28.9375H687.81C688.878 28.9375 689.839 29.7918 689.839 30.9664V39.509C689.839 40.6836 688.985 41.5378 687.81 41.5378Z" fill="none" stroke="#221b38" stroke-width="1"></path>
<path opacity="0.9" d="M610.289 23.1707H596.407C595.339 23.1707 594.378 22.3164 594.378 21.1418V12.5992C594.378 11.5313 595.233 10.5703 596.407 10.5703H610.289C611.357 10.5703 612.318 11.4246 612.318 12.5992V21.1418C612.318 22.3164 611.464 23.1707 610.289 23.1707Z" fill="#2563eb" stroke="#221b38" stroke-width="1"></path>
<path opacity="0.8" d="M636.129 23.1707H622.247C621.179 23.1707 620.218 22.3164 620.218 21.1418V12.5992C620.218 11.5313 621.072 10.5703 622.247 10.5703H636.129C637.197 10.5703 638.158 11.4246 638.158 12.5992V21.1418C638.158 22.3164 637.303 23.1707 636.129 23.1707Z" fill="none" stroke="#221b38" stroke-width="1"></path>
<path opacity="0.8" d="M661.969 23.1707H648.087C647.019 23.1707 646.058 22.3164 646.058 21.1418V12.5992C646.058 11.5313 646.912 10.5703 648.087 10.5703H661.969C663.036 10.5703 663.998 11.4246 663.998 12.5992V21.1418C663.998 22.3164 663.143 23.1707 661.969 23.1707Z" fill="none" stroke="#221b38" stroke-width="1"></path>
<path opacity="0.8" d="M713.652 41.3237H699.77C698.703 41.3237 697.742 40.4694 697.742 39.2948V12.5992C697.742 11.5313 698.596 10.5703 699.77 10.5703H713.652C714.72 10.5703 715.681 11.4246 715.681 12.5992V39.2948C715.681 40.4694 714.827 41.3237 713.652 41.3237Z" fill="none" stroke="#221b38" stroke-width="1"></path>
<path opacity="0.9" d="M648.42 205.788H634.538C633.47 205.788 632.509 204.934 632.509 203.759V195.216C632.509 194.149 633.363 193.188 634.538 193.188H648.42C649.488 193.188 650.449 194.042 650.449 195.216V203.759C650.449 204.934 649.594 205.788 648.42 205.788Z" fill="#2563eb" stroke="#221b38" stroke-width="1"></path>
<path opacity="0.87" d="M589.051 340.762L618.096 357.527C625.464 361.798 625.464 368.632 618.203 372.904L281.944 568.209C274.683 572.48 262.723 572.48 255.462 568.209L88.454 471.784C81.086 467.513 81.086 460.679 88.3472 456.408L424.499 261.102C431.76 256.831 443.72 256.831 450.981 261.102L480.026 277.867L589.051 340.762ZM620.765 355.925L453.757 259.5C444.894 254.375 430.586 254.375 421.829 259.5L367.05 291.322L291.555 335.209L290.166 335.957L214.778 379.844L85.5709 454.913C76.8147 460.038 76.8147 468.26 85.6777 473.386L252.686 569.811C261.549 574.936 275.858 574.936 284.614 569.811L498.713 445.409L574.208 401.521L620.765 374.399C629.628 369.38 629.522 361.051 620.765 355.925Z" fill="#2563eb" stroke="#221b38" stroke-width="1"></path>
<path d="M632.508 311.929C632.508 312.056 632.508 312.184 632.486 312.311C632.454 312.488 632.405 312.666 632.348 312.837V312.837C632.291 313.008 632.249 313.187 632.204 313.361C632.171 313.489 632.145 313.617 632.081 313.745C631.975 313.958 631.974 314.065 631.868 314.279C631.801 314.412 631.734 314.546 631.667 314.68C631.588 314.838 631.485 314.985 631.387 315.133V315.133C631.289 315.28 631.189 315.429 631.094 315.578C630.983 315.755 630.838 315.949 630.693 316.094C630.586 316.201 630.48 316.414 630.373 316.521C630.052 316.841 629.839 317.162 629.519 317.482C629.412 317.589 629.305 317.696 629.198 317.802C629.083 317.918 628.968 318.002 628.852 318.088C628.648 318.242 628.441 318.397 628.237 318.55V318.55C628.033 318.703 627.825 318.859 627.607 318.992C627.453 319.085 627.293 319.173 627.169 319.297C626.956 319.511 626.635 319.618 626.315 319.831L621.661 322.55C619.512 323.806 616.811 322.256 616.811 319.767V311.182C616.811 310.328 616.277 309.58 615.21 308.939L443.824 209.952C443.625 209.853 443.335 209.662 443.123 209.549C443.092 209.533 443.058 209.525 443.023 209.525V209.525C442.988 209.525 442.953 209.516 442.921 209.502C442.777 209.435 442.681 209.416 442.551 209.364C442.474 209.332 442.391 209.317 442.309 209.305C442.273 209.299 442.236 209.288 442.2 209.269C442.14 209.236 442.008 209.204 442.008 209.204V209.204C442.008 209.204 442.008 209.204 442.008 209.204H441.901C441.688 209.204 441.581 209.098 441.368 209.098C441.261 209.098 441.261 209.098 441.154 209.098H441.047C440.94 209.098 440.94 209.098 440.834 209.098C440.62 209.098 440.513 209.098 440.3 209.098C440.193 209.098 440.193 209.098 440.086 209.098H439.979C439.873 209.098 439.766 209.098 439.766 209.098C439.766 209.098 439.766 209.098 439.766 209.098C439.552 209.098 439.339 209.098 439.125 209.098C439.125 209.098 439.125 209.098 439.125 209.098C439.125 209.098 439.125 209.098 439.018 209.098H438.911C438.774 209.098 438.681 209.098 438.576 209.126C438.44 209.162 438.304 209.204 438.164 209.204V209.204C437.95 209.204 437.844 209.311 437.63 209.311C437.538 209.311 437.446 209.311 437.354 209.38C437.324 209.402 437.317 209.413 437.28 209.422V209.422C437.217 209.439 437.159 209.535 437.096 209.554C436.775 209.651 436.513 209.802 436.261 209.905C436.178 209.939 436.096 209.974 436.019 210.019L91.3103 410.335C91.2875 410.348 91.176 410.383 91.1495 410.383V410.383C91.1427 410.383 91.1178 410.386 91.1128 410.39C91.0086 410.49 90.9044 410.492 90.8002 410.596C90.6934 410.703 90.4798 410.81 90.373 410.917C90.2779 411.012 90.1828 411.107 90.0878 411.202C90.0653 411.225 90.0564 411.228 90.05 411.259V411.259C90.0366 411.324 89.9591 411.386 89.9081 411.429V411.429C89.8837 411.449 89.8265 411.463 89.804 411.486L89.7323 411.557C89.6255 411.664 89.6255 411.771 89.6255 411.878C89.6255 411.878 89.6255 411.878 89.6255 411.878C89.6255 411.878 89.6255 411.878 89.6255 411.985V411.985C89.6255 412.145 89.5188 412.288 89.5188 412.449C89.5188 412.472 89.5188 412.495 89.5188 412.519V421.02C89.5188 423.504 86.8277 425.054 84.6785 423.809L80.1219 421.168C75.9574 418.712 73.8217 415.615 73.8217 412.412L73.8217 438.146C73.8217 441.35 75.8506 444.447 80.1219 446.903L251.508 545.89C252.042 546.21 252.576 546.424 253.11 546.744C253.241 546.81 253.332 546.835 253.432 546.87C253.577 546.92 253.717 546.98 253.857 547.042C254.091 547.147 254.326 547.284 254.56 547.369C254.59 547.38 254.621 547.385 254.652 547.385V547.385C254.691 547.385 254.73 547.393 254.766 547.408C255.475 547.707 256.184 547.912 256.893 548.115C256.933 548.127 256.976 548.13 257.018 548.134V548.134C257.137 548.146 257.237 548.234 257.352 548.267C257.428 548.288 257.496 548.317 257.577 548.333C257.658 548.35 257.742 548.356 257.823 548.376C258.099 548.446 258.376 548.515 258.652 548.584C258.872 548.639 259.077 548.773 259.303 548.773V548.773C259.311 548.773 259.319 548.773 259.327 548.774C259.674 548.787 260.006 548.935 260.349 548.984C260.391 548.99 260.432 548.995 260.473 549.002C260.763 549.044 261.039 549.2 261.332 549.2V549.2V549.2C261.695 549.2 262.055 549.311 262.414 549.363C262.596 549.389 262.778 549.414 262.934 549.414C262.979 549.414 263.02 549.414 263.058 549.415C263.339 549.423 263.614 549.521 263.895 549.521V549.521C264.061 549.521 264.255 549.521 264.449 549.535C264.794 549.562 265.139 549.627 265.486 549.627C265.489 549.627 265.493 549.627 265.497 549.627C265.603 549.627 265.817 549.627 265.924 549.627C266.351 549.627 266.671 549.627 267.098 549.627C267.312 549.627 267.525 549.627 267.632 549.627C267.739 549.627 267.846 549.627 267.953 549.627C268.38 549.627 268.914 549.521 269.341 549.521C269.554 549.521 269.768 549.521 269.875 549.521C269.981 549.521 269.981 549.521 270.088 549.521C270.942 549.414 271.69 549.307 272.544 549.2H272.651C272.735 549.2 272.818 549.184 272.902 549.164C273.159 549.103 273.42 549.057 273.681 549.016C273.938 548.975 274.178 548.952 274.466 548.88C274.787 548.773 275 548.773 275.321 548.666C275.619 548.567 276.01 548.467 276.321 548.368C276.366 548.354 276.412 548.35 276.458 548.344V548.344C276.572 548.328 276.666 548.23 276.773 548.187C276.808 548.173 276.846 548.159 276.889 548.149C276.98 548.127 277.073 548.115 277.16 548.081C277.665 547.885 278.247 547.688 278.738 547.492V547.492C279.138 547.291 279.586 547.173 279.993 546.983C280.468 546.761 280.963 546.539 281.407 546.317L626.183 345.963C626.27 345.913 626.41 345.874 626.489 345.813V345.813C626.537 345.776 626.557 345.766 626.61 345.736C626.679 345.697 626.737 345.658 626.796 345.619C626.967 345.505 627.135 345.38 627.309 345.27C627.372 345.23 627.437 345.192 627.5 345.153C627.719 345.021 627.926 344.865 628.13 344.712V344.712C628.335 344.558 628.541 344.404 628.746 344.25C628.861 344.164 628.976 344.079 629.091 343.964L629.198 343.857C629.305 343.751 629.305 343.751 629.412 343.644C629.651 343.404 629.891 343.165 630.086 342.925C630.213 342.769 630.338 342.611 630.48 342.469V342.469V342.469C630.593 342.355 630.653 342.193 630.743 342.06C630.867 341.874 630.965 341.663 631.12 341.508C631.21 341.419 631.224 341.329 631.29 341.239C631.315 341.204 631.327 341.191 631.341 341.15V341.15C631.36 341.091 631.458 341.046 631.486 340.99C631.555 340.851 631.625 340.712 631.694 340.574C631.738 340.485 631.803 340.408 631.845 340.319C631.877 340.251 631.9 340.172 631.951 340.061C631.966 340.029 631.975 339.995 631.975 339.96V339.96C631.975 339.925 631.983 339.89 631.997 339.858C632.036 339.767 632.059 339.677 632.081 339.586C632.135 339.37 632.217 339.154 632.277 338.94C632.288 338.901 632.295 338.866 632.295 338.839V338.732C632.295 338.518 632.402 338.305 632.402 338.091C632.402 337.984 632.402 337.771 632.402 337.664C632.402 337.557 632.402 337.557 632.402 337.45L632.508 311.929C632.508 311.502 632.508 311.716 632.508 311.929ZM279.485 521.33C279.467 521.339 279.449 521.348 279.431 521.357C279.063 521.539 278.649 521.623 278.267 521.772C277.978 521.885 277.679 521.998 277.353 522.111C277.209 522.16 277.068 522.223 276.921 522.264C276.851 522.283 276.78 522.299 276.71 522.318C276.563 522.359 276.423 522.423 276.277 522.466C275.997 522.55 275.679 522.634 275.427 522.718C275.107 522.825 274.893 522.825 274.573 522.932C274.334 522.992 274.128 523.051 273.918 523.092C273.578 523.159 273.23 523.198 272.89 523.268C272.869 523.273 272.847 523.278 272.825 523.282C272.636 523.324 272.448 523.373 272.256 523.399C271.581 523.493 270.835 523.586 270.088 523.679V523.679C269.588 523.679 269.08 523.792 268.582 523.847C268.364 523.871 268.147 523.893 267.953 523.893C267.632 523.893 267.312 523.893 266.991 523.893C266.564 523.893 266.244 523.893 265.817 523.893C265.497 523.893 265.176 523.893 264.856 523.893C264.679 523.893 264.47 523.893 264.264 523.875C263.944 523.847 263.628 523.799 263.307 523.773V523.773C262.987 523.746 262.662 523.678 262.344 523.633C262.14 523.604 261.934 523.572 261.759 523.572C261.57 523.572 261.381 523.535 261.193 523.505C260.932 523.463 260.669 523.429 260.409 523.388C260.152 523.348 259.912 523.324 259.623 523.252C259.303 523.145 259.09 523.145 258.769 523.039C258.457 522.96 258.144 522.882 257.831 522.804C257.603 522.747 257.38 522.665 257.149 522.618C257.108 522.61 257.067 522.602 257.026 522.593C256.831 522.552 256.644 522.478 256.454 522.418C255.802 522.211 255.15 521.943 254.498 521.757C254.245 521.673 253.926 521.522 253.645 521.41C253.503 521.353 253.363 521.292 253.219 521.242C253.118 521.207 253.028 521.182 252.896 521.116C252.362 520.903 251.828 520.583 251.294 520.262L102.988 434.629C100.842 433.39 100.838 430.295 102.98 429.05L435.922 235.58C436.114 235.451 436.345 235.362 436.569 235.287C436.846 235.195 437.124 235.046 437.417 235.046V235.046C437.63 235.046 437.737 234.939 437.95 234.939C438.164 234.939 438.378 234.832 438.591 234.832H438.698C439.018 234.832 439.339 234.832 439.659 234.832H439.766C440.086 234.832 440.406 234.832 440.727 234.832H440.834C441.154 234.832 441.474 234.939 441.688 234.939V234.939C441.828 234.939 441.967 234.975 442.103 235.009C442.265 235.049 442.446 235.07 442.591 235.127C442.63 235.142 442.671 235.153 442.712 235.153V235.153C442.741 235.153 442.77 235.157 442.797 235.167C443.095 235.269 443.304 235.375 443.61 235.58L603.236 327.728C605.382 328.966 605.386 332.061 603.245 333.306L281.514 520.369C280.873 520.689 280.233 521.01 279.485 521.33Z" fill="none" stroke="#221b38" stroke-width="1"></path>
<path opacity="0.94" d="M626.318 302.533L454.932 203.545C446.603 198.74 433.148 198.74 424.926 203.545L80.0181 404.083C71.7958 408.888 71.7958 416.683 80.1249 421.489L251.511 520.476C259.84 525.281 273.188 525.281 281.517 520.476L626.425 320.045C634.647 315.133 634.54 307.338 626.318 302.533ZM615.319 313.531L270.411 513.962C268.276 515.244 264.752 515.244 262.616 513.962L91.2303 414.975C89.0946 413.694 88.9878 411.665 91.2303 410.383L436.138 209.952C438.274 208.671 441.798 208.671 443.933 209.952L615.213 308.94C617.455 310.221 617.455 312.25 615.319 313.531Z" fill="none" stroke="#221b38" stroke-width="1"></path>
<path opacity="0.82" d="M619.055 303.175L452.047 206.75C443.184 201.625 428.875 201.625 420.119 206.75L365.446 238.465L289.951 282.353L288.563 283.1L213.068 326.988L83.9674 402.056C75.2112 407.181 75.2112 415.404 84.0741 420.529L251.082 517.061C259.945 522.186 274.254 522.186 283.01 517.061L497.109 392.659L572.605 348.771L619.162 321.649C628.025 316.523 627.918 308.301 619.055 303.175Z" fill="#2563eb" stroke="#221b38" stroke-width="1"></path>
<path fill-rule="evenodd" clip-rule="evenodd" d="M719.322 164.999C717.494 164.999 716.012 166.481 716.012 168.309C716.012 170.137 717.494 171.619 719.322 171.619C721.15 171.619 722.633 170.137 722.633 168.309C722.633 166.481 721.15 164.999 719.322 164.999ZM713.876 168.309C713.876 165.302 716.315 162.863 719.322 162.863C722.33 162.863 724.768 165.302 724.768 168.309C724.768 171.317 722.33 173.755 719.322 173.755C716.315 173.755 713.876 171.317 713.876 168.309Z" fill="#5A516F" stroke="#221b38" stroke-width="1"></path>
<path fill-rule="evenodd" clip-rule="evenodd" d="M719.322 200.558C717.494 200.558 716.012 202.04 716.012 203.868C716.012 205.696 717.494 207.178 719.322 207.178C721.15 207.178 722.633 205.696 722.633 203.868C722.633 202.04 721.15 200.558 719.322 200.558ZM713.876 203.868C713.876 200.86 716.315 198.422 719.322 198.422C722.33 198.422 724.768 200.86 724.768 203.868C724.768 206.875 722.33 209.314 719.322 209.314C716.315 209.314 713.876 206.875 713.876 203.868Z" fill="#2563eb" stroke="#221b38" stroke-width="1"></path>
<path fill-rule="evenodd" clip-rule="evenodd" d="M661.874 195.966C661.874 195.377 662.353 194.898 662.942 194.898H678.96C679.549 194.898 680.027 195.377 680.027 195.966C680.027 196.556 679.549 197.034 678.96 197.034H662.942C662.353 197.034 661.874 196.556 661.874 195.966Z" fill="#5A516F" stroke="#221b38" stroke-width="1"></path>
<path fill-rule="evenodd" clip-rule="evenodd" d="M661.874 203.865C661.874 203.275 662.353 202.797 662.942 202.797H705.762C706.352 202.797 706.83 203.275 706.83 203.865C706.83 204.454 706.352 204.933 705.762 204.933H662.942C662.353 204.933 661.874 204.454 661.874 203.865Z" fill="#2563eb" stroke="#221b38" stroke-width="1"></path>
<path fill-rule="evenodd" clip-rule="evenodd" d="M661.874 160.404C661.874 159.814 662.353 159.336 662.942 159.336H678.96C679.549 159.336 680.027 159.814 680.027 160.404C680.027 160.994 679.549 161.472 678.96 161.472H662.942C662.353 161.472 661.874 160.994 661.874 160.404Z" fill="#5A516F" stroke="#221b38" stroke-width="1"></path>
<path fill-rule="evenodd" clip-rule="evenodd" d="M661.874 168.306C661.874 167.716 662.353 167.238 662.942 167.238H705.762C706.352 167.238 706.83 167.716 706.83 168.306C706.83 168.896 706.352 169.374 705.762 169.374H662.942C662.353 169.374 661.874 168.896 661.874 168.306Z" fill="#2563eb" stroke="#221b38" stroke-width="1"></path>
<path fill-rule="evenodd" clip-rule="evenodd" d="M644.256 116.304C639.721 116.304 636.141 119.883 636.141 124.419C636.141 128.947 639.819 132.535 644.256 132.535C648.121 132.535 651.424 129.801 652.179 126.025C652.295 125.447 652.857 125.072 653.436 125.187C654.014 125.303 654.389 125.866 654.273 126.444C653.32 131.21 649.148 134.67 644.256 134.67C638.656 134.67 634.005 130.142 634.005 124.419C634.005 118.704 638.541 114.168 644.256 114.168C645.3 114.168 646.291 114.284 647.301 114.663C647.853 114.87 648.133 115.486 647.926 116.038C647.719 116.59 647.103 116.87 646.551 116.663C645.853 116.401 645.135 116.304 644.256 116.304Z" fill="none" stroke="#221b38" stroke-width="1"></path>
<path fill-rule="evenodd" clip-rule="evenodd" d="M661.874 120.47C661.874 119.88 662.353 119.402 662.942 119.402H678.96C679.549 119.402 680.027 119.88 680.027 120.47C680.027 121.06 679.549 121.538 678.96 121.538H662.942C662.353 121.538 661.874 121.06 661.874 120.47Z" fill="#5A516F" stroke="#221b38" stroke-width="1"></path>
<path fill-rule="evenodd" clip-rule="evenodd" d="M661.874 128.373C661.874 127.783 662.353 127.305 662.942 127.305H705.762C706.352 127.305 706.83 127.783 706.83 128.373C706.83 128.962 706.352 129.44 705.762 129.44H662.942C662.353 129.44 661.874 128.962 661.874 128.373Z" fill="#2563eb" stroke="#221b38" stroke-width="1"></path>
<path fill-rule="evenodd" clip-rule="evenodd" d="M656.816 113.794C657.258 114.184 657.301 114.859 656.911 115.301L648.011 125.393C646.815 126.75 644.736 126.857 643.407 125.63L642.251 124.563C641.818 124.163 641.791 123.488 642.191 123.054C642.591 122.621 643.266 122.594 643.7 122.994V122.994C644.782 123.993 646.475 123.906 647.45 122.801L655.309 113.889C655.699 113.447 656.374 113.404 656.816 113.794Z" fill="none" stroke="#221b38" stroke-width="1"></path>
<path fill-rule="evenodd" clip-rule="evenodd" d="M644.256 79.3583C639.721 79.3583 636.141 82.938 636.141 87.4738C636.141 92.0015 639.819 95.5893 644.256 95.5893C648.121 95.5893 651.424 92.8559 652.179 89.0797C652.295 88.5014 652.857 88.1263 653.436 88.242C654.014 88.3577 654.389 88.9202 654.273 89.4985C653.32 94.2649 649.148 97.7249 644.256 97.7249C638.656 97.7249 634.005 93.1972 634.005 87.4738C634.005 81.7585 638.541 77.2227 644.256 77.2227C645.3 77.2227 646.291 77.3389 647.301 77.7178C647.853 77.9249 648.133 78.5404 647.926 79.0926C647.719 79.6447 647.103 79.9245 646.551 79.7175C645.853 79.4556 645.135 79.3583 644.256 79.3583Z" fill="none" stroke="#221b38" stroke-width="1"></path>
<path fill-rule="evenodd" clip-rule="evenodd" d="M661.874 83.6303C661.874 83.0406 662.353 82.5625 662.942 82.5625H678.96C679.549 82.5625 680.027 83.0406 680.027 83.6303C680.027 84.2201 679.549 84.6982 678.96 84.6982H662.942C662.353 84.6982 661.874 84.2201 661.874 83.6303Z" fill="#5A516F" stroke="#221b38" stroke-width="1"></path>
<path fill-rule="evenodd" clip-rule="evenodd" d="M661.874 91.5288C661.874 90.939 662.353 90.4609 662.942 90.4609H705.762C706.352 90.4609 706.83 90.939 706.83 91.5288C706.83 92.1185 706.352 92.5966 705.762 92.5966H662.942C662.353 92.5966 661.874 92.1185 661.874 91.5288Z" fill="#2563eb" stroke="#221b38" stroke-width="1"></path>
<path fill-rule="evenodd" clip-rule="evenodd" d="M656.816 76.9544C657.258 77.3445 657.301 78.0193 656.911 78.4616L648.011 88.5534C646.815 89.9104 644.736 90.0172 643.407 88.7901L642.251 87.7233C641.818 87.3233 641.791 86.6477 642.191 86.2144C642.591 85.781 643.266 85.754 643.7 86.154V86.154C644.782 87.1534 646.475 87.0664 647.45 85.9613L655.309 77.0491C655.699 76.6068 656.374 76.5644 656.816 76.9544Z" fill="none" stroke="#221b38" stroke-width="1"></path>
<path d="M573.456 349.198L572.602 348.664L497.107 392.552L497.961 393.086C500.204 394.367 503.941 394.367 506.183 393.086L573.456 354.003C575.806 352.722 575.699 350.586 573.456 349.198Z" fill="none" stroke="#221b38" stroke-width="1"></path>
<path d="M365.445 238.465L364.911 238.145C362.669 236.863 358.931 236.863 356.689 238.145L289.416 277.227C287.173 278.508 287.173 280.644 289.416 282.032L289.95 282.353L365.445 238.465Z" fill="none" stroke="#221b38" stroke-width="1"></path>
<path d="M288.564 283.207L288.03 282.887C285.788 281.605 282.05 281.605 279.808 282.887L212.535 321.969C210.292 323.251 210.292 325.386 212.535 326.774L213.069 327.095L288.564 283.207Z" fill="none" stroke="#221b38" stroke-width="1"></path>
<path d="M584.671 289.718C585.925 288.947 585.899 287.116 584.624 286.38L481.199 226.716C479.481 225.725 477.364 225.725 475.646 226.716V226.716C472.549 228.531 472.549 231.521 475.646 233.337L573.246 289.718C576.449 291.533 581.575 291.533 584.671 289.718V289.718Z" fill="none" stroke="#221b38" stroke-width="1"></path>
<path d="M587.447 288.012L616.492 304.777C623.86 309.048 623.86 315.882 616.599 320.154L280.341 515.459C273.079 519.73 261.12 519.73 253.859 515.459L86.7437 419.034C79.3757 414.763 79.3757 407.929 86.6369 403.658L422.789 208.352C430.05 204.081 442.01 204.081 449.271 208.352L478.316 225.117L587.447 288.012ZM619.055 303.175L452.047 206.75C443.184 201.625 428.875 201.625 420.119 206.75L365.446 238.465L289.951 282.353L288.563 283.1L213.068 326.988L83.9674 402.056C75.2112 407.181 75.2112 415.404 84.0741 420.529L251.082 517.061C259.945 522.186 274.254 522.186 283.01 517.061L497.109 392.659L572.605 348.771L619.162 321.649C628.025 316.523 627.918 308.301 619.055 303.175Z" fill="#2563eb" stroke="#221b38" stroke-width="1"></path>
<path opacity="0.8" d="M442.864 244.977L412.965 227.678C410.829 226.503 407.412 226.503 405.384 227.678L401.646 229.813C399.51 230.988 399.51 233.017 401.646 234.192L431.545 251.49C433.681 252.665 437.098 252.665 439.234 251.49L442.971 249.355C445 248.18 445 246.151 442.864 244.977Z" fill="none" stroke="#221b38" stroke-width="1"></path>
<path opacity="0.8" d="M536.461 298.895L506.562 281.596C504.426 280.421 501.009 280.421 498.874 281.596L495.136 283.731C493.001 284.906 493.001 286.935 495.136 288.11L525.035 305.408C527.171 306.583 530.588 306.583 532.724 305.408L536.461 303.273C538.597 302.098 538.597 300.069 536.461 298.895Z" fill="none" stroke="#221b38" stroke-width="1"></path>
<path opacity="0.8" d="M489.636 271.887L459.737 254.588C457.601 253.413 454.184 253.413 452.155 254.588L448.418 256.724C446.282 257.898 446.282 259.927 448.418 261.102L478.317 278.401C480.452 279.575 483.869 279.575 486.005 278.401L489.742 276.265C491.771 275.09 491.771 273.168 489.636 271.887Z" fill="none" stroke="#221b38" stroke-width="1"></path>
<path opacity="0.8" d="M583.069 325.918L553.17 308.619C551.035 307.445 547.617 307.445 545.589 308.619L541.851 310.755C539.716 311.929 539.716 313.958 541.851 315.133L571.75 332.432C573.886 333.606 577.303 333.606 579.439 332.432L583.176 330.296C585.205 329.122 585.205 327.093 583.069 325.918Z" fill="none" stroke="#221b38" stroke-width="1"></path>
<path d="M567.372 339.481L389.472 236.863C388.724 236.436 387.55 236.436 386.802 236.863C386.055 237.29 386.055 238.038 386.802 238.465L564.595 341.083C565.343 341.51 566.517 341.51 567.265 341.083C568.119 340.656 568.119 339.909 567.372 339.481Z" fill="none" stroke="#221b38" stroke-width="1"></path>
<path d="M524.564 362.395C525.454 361.896 525.463 360.618 524.58 360.108L438.431 310.303C438.002 310.055 437.474 310.055 437.045 310.303V310.303C436.12 310.836 436.12 312.172 437.045 312.705L523.264 362.387C523.666 362.618 524.159 362.621 524.564 362.395V362.395Z" fill="none" stroke="#221b38" stroke-width="1"></path>
<path d="M519.262 365.549C520.152 365.015 520.141 363.722 519.242 363.203L432.988 313.397C432.56 313.15 432.031 313.154 431.607 313.409V313.409C430.718 313.943 430.729 315.236 431.627 315.754L517.881 365.56C518.309 365.807 518.838 365.803 519.262 365.549V365.549Z" fill="none" stroke="#221b38" stroke-width="1"></path>
<path d="M513.814 368.646C514.704 368.112 514.693 366.819 513.794 366.301L427.601 316.574C427.2 316.343 426.706 316.34 426.301 316.566V316.566C425.411 317.065 425.402 318.342 426.285 318.853L512.433 368.657C512.862 368.905 513.39 368.9 513.814 368.646V368.646Z" fill="none" stroke="#221b38" stroke-width="1"></path>
<g opacity="0.8" filter="url(#filter0_d)">
<path fill-rule="evenodd" clip-rule="evenodd" d="M371.319 255.159C371.32 255.159 371.321 255.16 371.322 255.16L406.759 275.654C408.515 276.626 409.624 278.101 409.624 279.787C409.624 281.474 408.516 282.948 406.761 283.92L373.351 303.347C373.35 303.347 373.35 303.347 373.349 303.348C371.596 304.374 369.343 304.855 367.151 304.855C364.961 304.855 362.708 304.375 360.956 303.349C360.955 303.348 360.953 303.347 360.952 303.347L325.5 282.951C323.761 281.932 322.65 280.462 322.65 278.773C322.65 277.084 323.762 275.614 325.5 274.595L325.503 274.593L358.923 255.16C358.924 255.16 358.924 255.16 358.925 255.16C360.677 254.133 362.931 253.652 365.123 253.652C367.313 253.652 369.567 254.132 371.319 255.159ZM365.123 255.788C363.204 255.788 361.347 256.215 360.003 257.003L360 257.005L326.58 276.437C326.58 276.438 326.579 276.438 326.579 276.438C325.222 277.234 324.785 278.113 324.785 278.773C324.785 279.433 325.221 280.311 326.577 281.107C326.578 281.107 326.579 281.108 326.58 281.109L362.032 301.504C363.376 302.292 365.232 302.719 367.151 302.719C369.071 302.719 370.927 302.292 372.271 301.504L372.274 301.502L405.708 282.062L405.718 282.056C407.053 281.319 407.489 280.447 407.489 279.787C407.489 279.128 407.053 278.255 405.718 277.519L405.709 277.514L370.248 257.006L370.242 257.003C368.898 256.215 367.042 255.788 365.123 255.788Z" fill="none" stroke="#221b38" stroke-width="1"></path>
</g>
<path d="M536.297 351.655L496.467 328.59C494.545 327.522 491.448 327.522 489.633 328.59L488.671 329.124C486.749 330.192 486.749 332.007 488.671 333.075L528.501 356.14C530.423 357.208 533.52 357.208 535.335 356.14L536.297 355.606C538.219 354.538 538.219 352.723 536.297 351.655Z" fill="none" stroke="#221b38" stroke-width="1"></path>
<path d="M499.457 373.011L485.789 365.109C483.867 364.042 480.77 364.042 478.955 365.109L477.994 365.643C476.072 366.711 476.072 368.526 477.994 369.594L491.662 377.496C493.584 378.564 496.681 378.564 498.496 377.496L499.457 376.962C501.272 375.895 501.272 374.186 499.457 373.011Z" fill="none" stroke="#221b38" stroke-width="1"></path>
<g filter="url(#filter1_d)">
<path d="M459.329 400.313C460.254 399.815 460.274 398.495 459.364 397.97L373.144 348.184C372.743 347.952 372.249 347.949 371.844 348.176V348.176C370.954 348.674 370.945 349.951 371.828 350.462L458.022 400.293C458.425 400.526 458.92 400.533 459.329 400.313V400.313Z" fill="none" stroke="#221b38" stroke-width="1"></path>
</g>
<g filter="url(#filter2_d)">
<path d="M454.02 403.458C454.91 402.924 454.899 401.631 454.001 401.112L367.853 351.307C367.424 351.059 366.895 351.059 366.465 351.307V351.307C365.54 351.841 365.54 353.176 366.465 353.71L452.639 403.47C453.067 403.717 453.596 403.713 454.02 403.458V403.458Z" fill="none" stroke="#221b38" stroke-width="1"></path>
</g>
<g filter="url(#filter3_d)">
<path d="M448.579 406.564C449.504 406.03 449.504 404.695 448.579 404.161L362.405 354.401C361.977 354.154 361.448 354.158 361.024 354.413V354.413C360.134 354.947 360.145 356.24 361.043 356.759L447.191 406.563C447.62 406.812 448.149 406.812 448.579 406.564V406.564Z" fill="none" stroke="#221b38" stroke-width="1"></path>
</g>
<path opacity="0.87" d="M340.994 314.386L305.542 293.99C302.446 292.175 297.32 292.175 294.223 293.99L260.8 313.425C257.704 315.24 257.704 318.123 260.8 319.939L296.252 340.334C299.349 342.149 304.475 342.149 307.571 340.334L340.994 320.9C344.091 319.191 344.091 316.201 340.994 314.386Z" fill="none" stroke="#221b38" stroke-width="1"></path>
<path d="M471.054 389.561L431.224 366.496C429.302 365.428 426.206 365.428 424.39 366.496L423.429 367.03C421.507 368.098 421.507 369.913 423.429 370.981L463.259 394.046C465.181 395.114 468.278 395.114 470.093 394.046L471.054 393.512C472.976 392.444 472.976 390.629 471.054 389.561Z" fill="none" stroke="#221b38" stroke-width="1"></path>
<path d="M434.215 410.918L420.547 403.016C418.625 401.948 415.528 401.948 413.713 403.016L412.752 403.55C410.829 404.617 410.829 406.433 412.752 407.501L426.42 415.403C428.342 416.47 431.439 416.47 433.254 415.403L434.215 414.869C436.137 413.801 436.137 412.092 434.215 410.918Z" fill="none" stroke="#221b38" stroke-width="1"></path>
<path d="M394.183 438.208C395.072 437.71 395.081 436.433 394.198 435.923L307.897 386.09C307.496 385.858 307.002 385.855 306.598 386.082V386.082C305.708 386.58 305.699 387.857 306.583 388.367L392.883 438.2C393.284 438.432 393.778 438.435 394.183 438.208V438.208Z" fill="none" stroke="#221b38" stroke-width="1"></path>
<path d="M388.77 441.364C389.659 440.831 389.649 439.538 388.751 439.018L302.603 389.214C302.174 388.966 301.645 388.971 301.221 389.225V389.225C300.331 389.759 300.342 391.052 301.24 391.571L387.388 441.376C387.816 441.623 388.345 441.619 388.77 441.364V441.364Z" fill="none" stroke="#221b38" stroke-width="1"></path>
<path d="M383.432 444.463C384.321 443.929 384.311 442.636 383.412 442.117L297.158 392.311C296.73 392.064 296.201 392.068 295.777 392.323V392.323C294.888 392.857 294.899 394.15 295.797 394.669L382.051 444.474C382.479 444.721 383.008 444.717 383.432 444.463V444.463Z" fill="none" stroke="#221b38" stroke-width="1"></path>
<path opacity="0.87" d="M275.749 352.292L240.404 331.897C237.307 330.081 232.181 330.081 229.085 331.897L195.662 351.331C192.565 353.146 192.565 356.029 195.662 357.845L231.114 378.24C234.21 380.056 239.336 380.056 242.433 378.24L275.856 358.806C278.952 357.097 278.952 354.107 275.749 352.292Z" fill="none" stroke="#221b38" stroke-width="1"></path>
<path d="M405.808 427.467L365.978 404.402C364.056 403.335 360.96 403.335 359.144 404.402L358.183 404.936C356.261 406.004 356.261 407.819 358.183 408.887L398.013 431.952C399.935 433.02 403.032 433.02 404.847 431.952L405.808 431.418C407.73 430.351 407.73 428.535 405.808 427.467Z" fill="none" stroke="#221b38" stroke-width="1"></path>
<path d="M368.969 448.824L355.301 440.922C353.379 439.854 350.282 439.854 348.467 440.922L347.505 441.456C345.583 442.524 345.583 444.339 347.505 445.407L361.174 453.309C363.096 454.377 366.192 454.377 368.008 453.309L368.969 452.775C370.891 451.707 370.891 449.998 368.969 448.824Z" fill="none" stroke="#221b38" stroke-width="1"></path>
<path d="M328.97 476.068C329.86 475.535 329.848 474.242 328.95 473.724L242.651 423.996C242.249 423.765 241.756 423.762 241.352 423.988V423.988C240.462 424.486 240.453 425.764 241.337 426.274L327.591 476.08C328.018 476.327 328.547 476.323 328.97 476.068V476.068Z" fill="none" stroke="#221b38" stroke-width="1"></path>
<path d="M323.495 479.222C324.42 478.724 324.44 477.404 323.53 476.879L237.357 427.12C236.929 426.873 236.4 426.877 235.976 427.131V427.131C235.087 427.665 235.098 428.958 235.997 429.477L322.189 479.203C322.592 479.435 323.086 479.443 323.495 479.222V479.222Z" fill="none" stroke="#221b38" stroke-width="1"></path>
<path d="M318.186 482.368C319.076 481.834 319.065 480.541 318.167 480.022L232.019 430.218C231.59 429.969 231.061 429.969 230.631 430.217V430.217C229.706 430.751 229.706 432.086 230.631 432.62L316.805 482.38C317.233 482.627 317.762 482.623 318.186 482.368V482.368Z" fill="none" stroke="#221b38" stroke-width="1"></path>
<path opacity="0.87" d="M210.609 390.202L175.158 369.807C172.061 367.991 166.935 367.991 163.839 369.807L130.416 389.241C127.319 391.057 127.319 393.94 130.416 395.755L165.868 416.15C168.964 417.966 174.09 417.966 177.187 416.15L210.609 396.716C213.706 395.008 213.706 392.018 210.609 390.202Z" fill="none" stroke="#221b38" stroke-width="1"></path>
<path d="M340.673 465.378L300.844 442.313C298.921 441.245 295.825 441.245 294.009 442.313L293.048 442.847C291.126 443.914 291.126 445.73 293.048 446.797L332.878 469.863C334.8 470.93 337.897 470.93 339.712 469.863L340.673 469.329C342.489 468.154 342.489 466.445 340.673 465.378Z" fill="none" stroke="#221b38" stroke-width="1"></path>
<path d="M303.727 486.734L290.058 478.832C288.136 477.764 285.04 477.764 283.224 478.832L282.263 479.366C280.341 480.434 280.341 482.249 282.263 483.317L295.931 491.219C297.854 492.287 300.95 492.287 302.766 491.219L303.727 490.685C305.649 489.617 305.649 487.802 303.727 486.734Z" fill="none" stroke="#221b38" stroke-width="1"></path>
<path opacity="0.8" d="M221.399 478.296L151.029 437.719C149.534 436.865 147.185 436.865 145.796 437.719C144.301 438.573 144.301 439.961 145.796 440.816L216.166 481.393C217.661 482.247 220.01 482.247 221.399 481.393C222.787 480.539 222.787 479.15 221.399 478.296Z" fill="none" stroke="#221b38" stroke-width="1"></path>
<g filter="url(#filter4_d)">
<path d="M358.508 265.48C353.703 265.908 349.111 267.189 345.374 269.325C336.19 274.664 336.19 283.42 345.48 288.759C349.111 290.788 353.489 292.069 358.188 292.603C354.877 291.856 351.781 290.788 349.218 289.293C339.501 283.634 339.501 274.557 349.111 268.898C351.887 267.403 355.091 266.228 358.508 265.48ZM349.859 280.75C348.47 280.003 348.47 278.722 349.859 277.974C352.742 276.372 357.333 276.372 360.216 277.974L368.973 282.993C371.856 284.595 371.856 287.371 368.973 288.973C367.691 289.72 365.449 289.72 364.167 288.973L349.859 280.75ZM366.517 279.255C363.74 277.654 363.74 275.091 366.517 273.489C369.293 271.887 373.778 271.887 376.554 273.489C379.331 275.091 379.331 277.654 376.554 279.255C373.778 280.857 369.293 280.857 366.517 279.255ZM378.903 269.431C375.38 267.403 371.001 266.121 366.41 265.587C360.537 265.587 354.557 266.975 350.072 269.538C340.996 274.771 340.996 283.42 350.179 288.652C354.557 291.215 360.323 292.496 366.089 292.603C370.788 292.176 375.38 290.895 379.01 288.759C388.3 283.42 388.193 274.771 378.903 269.431Z" fill="none" stroke="#221b38" stroke-width="1"></path>
</g>
<path opacity="0.8" d="M366.514 265.585C372.6 265.585 378.58 266.866 383.278 269.535C392.462 274.768 392.462 283.417 383.385 288.65C378.687 291.426 372.493 292.707 366.3 292.601C360.534 292.494 354.768 291.212 350.389 288.65C341.206 283.417 341.206 274.768 350.283 269.535C354.661 266.973 360.534 265.585 366.514 265.585ZM384.24 268.895C377.299 264.837 367.261 263.769 358.505 265.478C355.088 266.118 351.884 267.293 349.108 268.895C339.498 274.554 339.498 283.631 349.215 289.29C351.884 290.785 354.981 291.96 358.185 292.601C367.048 294.523 377.299 293.348 384.346 289.29C393.957 283.631 393.957 274.554 384.24 268.895Z" fill="none" stroke="#221b38" stroke-width="1"></path>
<path d="M368.864 282.884L360.107 277.865C357.224 276.264 352.633 276.264 349.75 277.865C348.468 278.613 348.468 279.894 349.75 280.642L363.952 288.864C365.34 289.611 367.475 289.611 368.757 288.864C371.747 287.262 371.747 284.593 368.864 282.884Z" fill="#2563eb" stroke="#221b38" stroke-width="1"></path>
<path d="M376.551 273.486C373.775 271.885 369.29 271.885 366.513 273.486C363.737 275.088 363.737 277.651 366.513 279.253C369.29 280.854 373.775 280.854 376.551 279.253C379.327 277.651 379.327 274.981 376.551 273.486Z" fill="#2563eb" stroke="#221b38" stroke-width="1"></path>
<path d="M303.834 320.154L295.078 315.135C292.195 313.533 287.603 313.533 284.72 315.135C283.439 315.882 283.439 317.164 284.72 317.911L298.922 326.134C300.311 326.881 302.446 326.881 303.728 326.134C306.717 324.532 306.717 321.862 303.834 320.154Z" fill="none" stroke="#221b38" stroke-width="1"></path>
<path d="M311.522 310.651C308.745 309.049 304.26 309.049 301.484 310.651C298.708 312.252 298.708 314.815 301.484 316.417C304.26 318.019 308.745 318.019 311.522 316.417C314.298 314.922 314.298 312.252 311.522 310.651Z" fill="none" stroke="#221b38" stroke-width="1"></path>
<path d="M238.484 356.567L228.873 351.014C225.777 349.199 220.651 349.199 217.554 351.014C216.059 351.868 216.059 353.256 217.554 354.111L233.145 363.08C234.639 363.935 236.989 363.935 238.484 363.08C241.687 361.372 241.687 358.382 238.484 356.567Z" fill="none" stroke="#221b38" stroke-width="1"></path>
<path d="M246.918 346.207C243.822 344.499 238.91 344.499 235.92 346.207C232.93 347.916 232.93 350.799 235.92 352.614C238.91 354.323 243.928 354.323 246.918 352.614C250.015 350.799 250.015 347.916 246.918 346.207Z" fill="none" stroke="#221b38" stroke-width="1"></path>
<path d="M173.773 394.367L164.162 388.815C161.066 386.999 155.94 386.999 152.843 388.815C151.348 389.669 151.348 391.057 152.843 391.911L168.434 400.881C169.929 401.735 172.278 401.735 173.773 400.881C176.976 399.173 176.869 396.183 173.773 394.367Z" fill="none" stroke="#221b38" stroke-width="1"></path>
<path d="M182.207 384.008C179.111 382.299 174.199 382.299 171.209 384.008C168.219 385.716 168.219 388.6 171.209 390.415C174.199 392.123 179.217 392.123 182.207 390.415C185.197 388.6 185.197 385.716 182.207 384.008Z" fill="none" stroke="#221b38" stroke-width="1"></path>
<path fill-rule="evenodd" clip-rule="evenodd" d="M354.874 126.233C354.076 126.233 353.379 126.93 353.379 127.728V140.542C353.379 141.341 354.076 142.037 354.874 142.037H367.581C368.43 142.037 369.076 141.399 369.076 140.435V127.728C369.076 126.93 368.38 126.233 367.581 126.233H354.874ZM351.244 127.728C351.244 125.75 352.896 124.098 354.874 124.098H367.581C369.559 124.098 371.212 125.75 371.212 127.728V140.435C371.212 142.462 369.723 144.173 367.581 144.173H354.874C352.896 144.173 351.244 142.52 351.244 140.542V127.728Z" fill="none" stroke="#221b38" stroke-width="1"></path>
<path fill-rule="evenodd" clip-rule="evenodd" d="M237.85 45.0426C237.874 45.837 238.588 46.5096 239.382 46.486L252.19 46.1056C252.985 46.082 253.657 45.3683 253.634 44.5739L253.256 31.8724C253.231 31.0283 252.578 30.4037 251.618 30.4322L238.916 30.8094C238.122 30.833 237.449 31.5467 237.473 32.3411L237.85 45.0426ZM239.446 48.6342C237.465 48.693 235.761 47.0872 235.702 45.1064L235.325 32.4049C235.266 30.4241 236.872 28.72 238.853 28.6611L251.554 28.2839C253.583 28.2237 255.341 29.664 255.405 31.8086L255.782 44.5101C255.841 46.4909 254.235 48.195 252.254 48.2539L239.446 48.6342Z" fill="#5A516F" stroke="#221b38" stroke-width="1"></path>
<path fill-rule="evenodd" clip-rule="evenodd" d="M96.8313 316.069C96.0328 316.069 95.3363 316.766 95.3363 317.564V330.378C95.3363 331.177 96.0328 331.873 96.8313 331.873H109.538C110.387 331.873 111.033 331.235 111.033 330.271V317.564C111.033 316.766 110.337 316.069 109.538 316.069H96.8313ZM93.2006 317.564C93.2006 315.586 94.8534 313.934 96.8313 313.934H109.538C111.516 313.934 113.169 315.586 113.169 317.564V330.271C113.169 332.298 111.68 334.009 109.538 334.009H96.8313C94.8534 334.009 93.2006 332.356 93.2006 330.378V317.564Z" fill="none" stroke="#221b38" stroke-width="1"></path>
<path opacity="0.87" fill-rule="evenodd" clip-rule="evenodd" d="M61.2219 518.018C60.4234 518.018 59.7269 518.715 59.7269 519.513V532.327C59.7269 533.126 60.4234 533.822 61.2219 533.822H73.929C74.7775 533.822 75.424 533.184 75.424 532.221V519.513C75.424 518.715 74.7274 518.018 73.929 518.018H61.2219ZM57.5912 519.513C57.5912 517.535 59.244 515.883 61.2219 515.883H73.929C75.9069 515.883 77.5596 517.536 77.5596 519.513V532.221C77.5596 534.247 76.0704 535.958 73.929 535.958H61.2219C59.244 535.958 57.5912 534.305 57.5912 532.327V519.513Z" fill="none" stroke="#221b38" stroke-width="1"></path>
<path d="M49.7425 509.478C49.7425 508.68 50.4391 507.983 51.2375 507.983H63.9446C64.7431 507.983 65.4396 508.68 65.4396 509.478V514.817H67.5752V509.478C67.5752 507.5 65.9226 505.848 63.9446 505.848H51.2375C49.2596 505.848 47.6069 507.5 47.6069 509.478V522.292C47.6069 524.27 49.2596 525.923 51.2375 525.923H56.5232V523.787H51.2375C50.4391 523.787 49.7425 523.091 49.7425 522.292V509.478Z" fill="none" stroke="#221b38" stroke-width="1"></path>
<path d="M60.7945 523.787V525.923H63.9446C66.086 525.923 67.5752 524.212 67.5752 522.185V519.089H65.4396V522.185C65.4396 523.149 64.7932 523.787 63.9446 523.787H60.7945Z" fill="none" stroke="#221b38" stroke-width="1"></path>
<path opacity="0.87" fill-rule="evenodd" clip-rule="evenodd" d="M238.944 217.444C238.968 218.242 239.685 218.918 240.483 218.894L253.291 218.514C254.089 218.49 254.765 217.773 254.741 216.975L254.364 204.274C254.339 203.426 253.682 202.798 252.719 202.827L240.017 203.204C239.219 203.228 238.543 203.945 238.567 204.743L238.944 217.444ZM240.546 221.029C238.569 221.088 236.868 219.485 236.81 217.508L236.432 204.806C236.374 202.829 237.977 201.128 239.954 201.069L252.655 200.692C254.681 200.632 256.435 202.07 256.499 204.21L256.876 216.912C256.935 218.889 255.332 220.59 253.355 220.649L240.546 221.029Z" fill="#2563eb" stroke="#221b38" stroke-width="1"></path>
<path fill-rule="evenodd" clip-rule="evenodd" d="M377.935 134.993C377.935 134.399 378.416 133.918 379.01 133.918H446.603C447.196 133.918 447.678 134.399 447.678 134.993C447.678 135.586 447.196 136.067 446.603 136.067H379.01C378.416 136.067 377.935 135.586 377.935 134.993Z" fill="#2563eb" stroke="#221b38" stroke-width="1"></path>
<path opacity="0.9" d="M462.085 129.547H452.902V138.73H462.085V129.547Z" fill="#2563eb" stroke="#221b38" stroke-width="1"></path>
<path fill-rule="evenodd" clip-rule="evenodd" d="M467.203 134.993C467.203 134.399 467.684 133.918 468.277 133.918H503.545C504.139 133.918 504.62 134.399 504.62 134.993C504.62 135.586 504.139 136.067 503.545 136.067H468.277C467.684 136.067 467.203 135.586 467.203 134.993Z" fill="#2563eb" stroke="#221b38" stroke-width="1"></path>
<path fill-rule="evenodd" clip-rule="evenodd" d="M632.816 388.518C630.416 388.518 628.438 390.496 628.438 392.897V442.764C628.438 445.164 630.416 447.142 632.816 447.142H764.159C766.559 447.142 768.537 445.164 768.537 442.764V434.755C768.537 434.166 769.015 433.688 769.604 433.688C770.194 433.688 770.672 434.166 770.672 434.755V442.764C770.672 446.344 767.738 449.278 764.159 449.278H632.816C629.236 449.278 626.302 446.344 626.302 442.764V392.897C626.302 389.317 629.236 386.383 632.816 386.383H764.159C767.738 386.383 770.672 389.317 770.672 392.897V403.041C770.672 403.631 770.194 404.109 769.604 404.109C769.015 404.109 768.537 403.631 768.537 403.041V392.897C768.537 390.496 766.559 388.518 764.159 388.518H632.816Z" fill="#5A516F" stroke="#221b38" stroke-width="1"></path>
<path fill-rule="evenodd" clip-rule="evenodd" d="M637.619 407.099C637.619 406.509 638.097 406.031 638.686 406.031H673.284C673.874 406.031 674.352 406.509 674.352 407.099C674.352 407.689 673.874 408.167 673.284 408.167H638.686C638.097 408.167 637.619 407.689 637.619 407.099Z" fill="none" stroke="#221b38" stroke-width="1"></path>
<path fill-rule="evenodd" clip-rule="evenodd" d="M637.619 417.884C637.619 417.294 638.097 416.816 638.686 416.816H736.179C736.769 416.816 737.247 417.294 737.247 417.884C737.247 418.474 736.769 418.952 736.179 418.952H638.686C638.097 418.952 637.619 418.474 637.619 417.884Z" fill="#5A516F" stroke="#221b38" stroke-width="1"></path>
<path fill-rule="evenodd" clip-rule="evenodd" d="M637.619 425.466C637.619 424.877 638.097 424.398 638.686 424.398H719.307C719.897 424.398 720.375 424.877 720.375 425.466C720.375 426.056 719.897 426.534 719.307 426.534H638.686C638.097 426.534 637.619 426.056 637.619 425.466Z" fill="#5A516F" stroke="#221b38" stroke-width="1"></path>
<path fill-rule="evenodd" clip-rule="evenodd" d="M637.619 432.943C637.619 432.353 638.097 431.875 638.686 431.875H750.701C751.291 431.875 751.769 432.353 751.769 432.943C751.769 433.533 751.291 434.011 750.701 434.011H638.686C638.097 434.011 637.619 433.533 637.619 432.943Z" fill="#5A516F" stroke="#221b38" stroke-width="1"></path>
</svg>